<?xml version="1.0" standalone="no"?>
<!DOCTYPE svg PUBLIC "-//W3C//DTD SVG 20010904//EN"
 "http://www.w3.org/TR/2001/REC-SVG-20010904/DTD/svg10.dtd">
<svg version="1.0" xmlns="http://www.w3.org/2000/svg"
 width="128.000000pt" height="128.000000pt" viewBox="0 0 128.000000 128.000000"
 preserveAspectRatio="xMidYMid meet">
<metadata>
Created by potrace 1.14, written by Peter Selinger 2001-2017
</metadata>
<g transform="translate(0.000000,128.000000) scale(0.100000,-0.100000)"
fill="#000000" stroke="none">
<path d="M93 1264 c-17 -7 -44 -30 -60 -50 l-28 -37 -3 -517 c-3 -583 -4 -574
66 -627 l43 -32 520 -1 c580 0 563 -2 617 68 l27 35 3 521 c2 385 0 528 -9
551 -18 45 -58 84 -98 95 -22 6 -237 10 -541 9 -408 0 -511 -3 -537 -15z"/>
</g>
</svg>
